<svg width="24" height="24" viewBox="0 0 24 24" fill="none" xmlns="http://www.w3.org/2000/svg">
<path d="M3 3H6.27273L8.46545 13.8395C8.54027 14.2122 8.7452 14.547 9.04436 14.7853C9.34351 15.0236 9.71784 15.1501 10.1018 15.1429H18.0545C18.4385 15.1501 18.8129 15.0236 19.112 14.7853C19.4112 14.547 19.6161 14.2122 19.6909 13.8395L21 7.04762H7.09091M10.3636 19.1905C10.3636 19.6376 9.99732 20 9.54545 20C9.09359 20 8.72727 19.6376 8.72727 19.1905C8.72727 18.7434 9.09359 18.381 9.54545 18.381C9.99732 18.381 10.3636 18.7434 10.3636 19.1905ZM19.3636 19.1905C19.3636 19.6376 18.9973 20 18.5455 20C18.0936 20 17.7273 19.6376 17.7273 19.1905C17.7273 18.7434 18.0936 18.381 18.5455 18.381C18.9973 18.381 19.3636 18.7434 19.3636 19.1905Z" stroke="#14142B" stroke-width="2" stroke-linecap="round" stroke-linejoin="round"/>
</svg>
