<svg width="178" height="140" viewBox="0 0 178 140" fill="none" xmlns="http://www.w3.org/2000/svg">
<g clip-path="url(#clip0_186_2030)">
<path opacity="0.1" d="M62.4395 137.288C79.5877 137.288 93.489 134.641 93.489 131.376C93.489 128.11 79.5877 125.463 62.4395 125.463C45.2912 125.463 31.3899 128.11 31.3899 131.376C31.3899 134.641 45.2912 137.288 62.4395 137.288Z" fill="white"/>
<path opacity="0.1" d="M103.418 19.7444C92.0066 19.3474 81.1384 15.6433 70.7603 11.5918C60.3823 7.54027 50.1029 3.05278 38.9649 0.906518C31.8011 -0.474111 23.6076 -0.670837 17.8367 3.18571C12.281 6.90756 10.4861 13.3145 9.5216 19.2641C8.79517 23.7409 8.36847 28.4535 10.3573 32.645C11.7397 35.5552 14.1905 38.0009 15.8867 40.7888C21.788 50.4869 17.6164 62.4464 11.2231 71.9159C8.22566 76.3573 4.74338 80.6002 2.42833 85.3234C0.113271 90.0466 -0.956978 95.4769 1.06891 100.308C3.07541 105.093 7.85892 108.681 13.0409 111.206C23.5653 116.337 35.9622 117.804 48.0594 118.637C74.8298 120.477 101.741 119.681 128.582 118.882C138.516 118.588 148.492 118.288 158.263 116.745C163.69 115.887 169.292 114.526 173.233 111.24C178.233 107.07 179.473 100.009 176.121 94.7804C170.5 86.0075 154.963 83.8293 151.029 74.4166C148.867 69.2344 151.087 63.4637 154.231 58.659C160.973 48.3495 172.274 39.3054 172.868 27.5231C173.277 19.4307 167.844 11.3259 159.445 7.49596C150.641 3.48168 138.431 3.98679 131.939 10.6312C125.248 17.4652 113.495 20.0971 103.418 19.7444Z" fill="white"/>
<path d="M94.3513 64.1117L88.9507 60.4519L91.6748 56.3756L77.4107 55.2324L72.2851 59.2166L65.8689 55.6011L60.5176 56.248L60.4542 54.8301C60.3879 53.352 60.2402 51.8787 60.0116 50.4171C60.0345 49.974 60.0504 49.4654 60.0486 48.9124C60.0486 46.5818 59.7348 43.4927 58.356 41.4332L58.6733 38.5657L56.0991 35.5084C56.5125 34.6807 56.9839 33.8835 57.5096 33.1229C57.5978 32.9953 57.686 32.8712 57.7812 32.7507C61.1224 32.5079 63.7584 29.7466 63.7584 26.3704C63.7584 26.2144 63.7584 26.0585 63.7407 25.9043C63.7407 25.8422 63.7284 25.7784 63.7213 25.7164C64.0475 25.8936 64.3772 26.0709 64.7069 26.2481C64.7687 26.3367 64.8392 26.4253 64.9168 26.5299L64.9326 26.5494L65.0314 26.6717L65.0631 26.7089C65.0984 26.7514 65.1354 26.7922 65.1724 26.8347L65.1971 26.8631C65.2906 26.9677 65.3893 27.074 65.4951 27.1786C65.5077 27.1889 65.5195 27.2001 65.5304 27.2122L65.6626 27.3363L65.6996 27.37C65.8125 27.471 65.9324 27.5685 66.0523 27.6606L66.091 27.689L66.2427 27.7936L66.292 27.8255C66.3502 27.8609 66.4102 27.8981 66.4684 27.9318L66.4895 27.9442C66.5583 27.9814 66.6288 28.0169 66.6993 28.0505L66.7346 28.0647C66.7946 28.0907 66.8533 28.1155 66.9109 28.1392L66.9656 28.1587C67.0273 28.1799 67.0872 28.1994 67.1507 28.2171L67.1895 28.2278C67.2671 28.2473 67.3447 28.2632 67.424 28.2756H67.4328C67.5075 28.2878 67.5829 28.2955 67.6585 28.2987H67.7096C67.7772 28.3022 67.8449 28.3022 67.9124 28.2987H67.9565C68.0411 28.2938 68.1253 28.2837 68.2086 28.2685C68.6031 28.2164 68.9819 28.0798 69.3194 27.868C69.4054 27.8102 69.4816 27.739 69.5451 27.6571C69.8978 27.1927 69.5098 26.6841 69.5098 26.6841C69.3723 26.3544 68.4802 26.1223 68.4802 26.1223C68.4802 26.1223 65.6591 24.9384 65.6591 23.9955C65.6591 23.0526 64.9538 18.1611 57.6736 17.0427C57.6736 17.0427 52.9377 16.7751 51.6065 19.3237L51.5783 19.6214C51.1869 19.8678 50.8625 20.3623 50.4763 20.5076C50.3095 20.5436 50.1486 20.6033 49.9985 20.6848V20.6512C49.9539 20.6903 49.9174 20.7379 49.891 20.7912C49.808 20.9571 49.7583 21.1377 49.7446 21.3229C49.7049 21.549 49.6267 21.7667 49.5136 21.9662C49.4821 22.0229 49.4467 22.0774 49.4078 22.1293L49.3779 22.1771C49.5826 22.1931 49.7881 22.1597 49.9773 22.0796C49.9475 22.3223 49.8883 22.5604 49.801 22.7886C49.9131 22.7922 50.0239 22.7634 50.1202 22.7056C50.2164 22.6478 50.2942 22.5634 50.3441 22.4625V22.4483L50.367 22.4164C50.4113 22.3343 50.4479 22.2483 50.4763 22.1594L50.4569 22.1807C50.4922 22.0655 50.5239 21.9485 50.5627 21.8351C50.5805 21.7712 50.6098 21.7111 50.6491 21.6578C50.6962 21.6101 50.7537 21.5742 50.8171 21.553C50.8805 21.5317 50.948 21.5258 51.0141 21.5355L50.9418 23.0721H50.9735C50.9311 23.1839 50.8792 23.2918 50.8184 23.3947C50.568 23.8023 50.1131 24.0806 49.9456 24.5272C49.8734 24.7426 49.8458 24.9706 49.8645 25.1971C49.8645 25.33 49.8804 25.4647 49.891 25.5977V25.587C49.9156 25.9415 49.9227 26.2782 49.7323 26.5636C49.6018 26.7585 49.392 26.9056 49.3197 27.1272C49.2997 27.1889 49.2907 27.2537 49.2932 27.3186C49.3074 27.5128 49.3477 27.7042 49.4131 27.8875C49.4139 27.884 49.4139 27.8804 49.4131 27.8769C49.4571 28.0117 49.4674 28.1553 49.4431 28.2951C49.3638 28.6496 48.9353 28.9456 48.9565 29.2841C48.9553 29.3286 48.9618 29.373 48.9759 29.4152C49.0583 29.5806 49.201 29.7075 49.3743 29.7697C49.6462 29.9251 49.9584 29.9943 50.27 29.9682C50.3868 29.947 50.4998 29.9081 50.605 29.853C50.4816 30.1383 50.3547 30.4201 50.226 30.6877C50.2066 30.7303 50.1854 30.7728 50.1642 30.8153C50.1642 30.8153 49.0746 30.0834 48.4557 31.5757C48.2751 31.8858 48.1458 32.2234 48.0731 32.5752C48.0421 32.716 47.9984 32.8536 47.9426 32.9864C47.6679 33.454 47.2567 33.8252 46.7648 34.0498C45.5024 34.6311 40.4033 41.0238 40.3134 42.6792C40.2692 43.3254 40.1605 43.9654 39.9889 44.5897C39.5875 46.0599 39.4844 47.5963 39.6857 49.1073C39.7487 49.5957 39.8531 50.0777 39.9977 50.5482C40.539 52.2018 40.9005 55.2874 40.9005 55.2874L41.4859 60.6433C41.4641 61.3825 41.496 62.1223 41.5811 62.8569C40.9834 63.5428 38.5837 66.4015 39.5005 67.1796C40.2058 67.7928 41.44 67.6918 42.133 67.5659C41.5493 69.0175 40.6307 71.5412 40.5091 73.2746C40.3328 75.8391 40.8106 79.2366 41.567 80.541C42.3234 81.8454 44.8447 85.1916 44.8447 85.1916C44.8447 85.1916 44.7266 89.7818 45.6276 91.4496C46.5286 93.1173 46.8918 96.5769 46.8918 96.5769C46.8918 96.5769 47.7328 99.4976 47.3114 100.572C46.89 101.646 48.0925 102.539 46.8301 103.253C45.5676 103.967 43.9526 120.065 43.9526 120.065C43.9526 120.065 43.3019 130.616 43.9526 131.153C43.9874 131.178 44.0246 131.2 44.0636 131.218V134.763C44.0636 134.763 43.6123 135.507 45.4477 135.658C46.7049 135.759 50.2683 135.988 52.3823 136.121L54.0203 136.223C54.0203 136.223 57.8993 137 59.6131 136.223C61.3269 135.447 64.3649 135.465 63.9135 133.414C63.8537 133.135 63.7735 132.861 63.6737 132.594C63.1783 131.321 62.3372 131.176 60.7874 130.821C60.6975 130.802 60.6111 130.784 60.5317 130.77C58.899 130.485 58.363 131.249 57.4479 130.254C56.6527 129.395 54.1208 128.432 53.2586 128.128C53.2798 128.064 53.3062 128.002 53.3274 127.936C53.0832 127.894 52.8562 127.783 52.6732 127.615L55.0095 127.764L56.4006 127.851C56.4006 127.851 59.6978 128.512 61.1612 127.851C62.6246 127.19 65.1989 127.208 64.8145 125.466C64.7639 125.228 64.6961 124.995 64.6117 124.767C64.1903 123.686 63.4745 123.567 62.1574 123.268C62.0816 123.252 62.011 123.236 61.9405 123.224C60.5529 122.981 60.098 123.629 59.3204 122.786C58.654 122.066 56.5505 121.26 55.7941 120.985C55.7941 120.592 55.2651 120.032 54.9319 119.47C54.5405 118.814 55.2634 116.519 55.2634 116.519L55.6759 106.996C55.8331 106.926 55.9993 106.878 56.1696 106.854C56.1696 106.854 58.0351 105.064 57.6137 103.157C57.5278 102.581 57.483 101.998 57.4797 101.415C58.0933 100.843 58.9378 99.9974 59.1776 99.4764C59.569 98.6274 59.1776 94.5139 59.1776 94.5139V78.7847L62.2984 79.1019L65.1301 79.3943L65.9923 79.483L68.824 79.7701L75.3319 80.4311L81.1962 79.3146L83.7334 78.8325L88.9507 77.84V65.0085L94.3513 64.1117ZM51.3985 21.5922L51.0353 21.5533C51.1551 21.5586 51.2821 21.5816 51.3985 21.5922Z" fill="url(#paint0_linear_186_2030)"/>
<path d="M81.6934 72.443C79.9302 74.9792 73.5916 73.6358 73.5916 73.6358L68.6793 69.0154L68.0182 68.3898L69.1272 66.022C69.1272 66.022 69.4798 66.1194 70.0846 66.2931C73.2601 67.2201 83.1815 70.311 81.6934 72.443Z" fill="#EFB7B9"/>
<path opacity="0.1" d="M70.0811 66.2931C69.8642 67.0517 69.27 68.1877 68.6793 69.0154L68.0182 68.3898L69.1272 66.022C69.1272 66.022 69.4834 66.1194 70.0811 66.2931Z" fill="black"/>
<path d="M53.2339 39.5916C53.2339 39.5916 48.7061 41.6102 48.9282 46.5674C49.0881 49.761 49.4342 52.9424 49.965 56.0953C49.965 56.0953 49.0393 63.5549 52.8936 65.4779C56.7479 67.4009 60.3148 68.9818 60.3148 68.9818C60.3148 68.9818 66.3449 69.634 67.0943 69.9034C67.8436 70.1727 70.1851 66.0539 69.7531 65.4123C69.3212 64.7707 63.7865 63.4256 63.0813 62.3551C62.376 61.2846 60.7451 60.6235 60.7451 60.6235C60.7451 60.6235 59.0612 59.5991 58.9466 58.674C58.832 57.7489 59.2763 57.0594 59.3892 56.6536C59.502 56.2477 59.7876 52.3291 59.7876 52.3291C59.7876 52.3291 61.6884 38.3811 53.2339 39.5916Z" fill="#DCE6F2"/>
<path opacity="0.1" d="M56.2225 55.8916C56.2225 55.8916 50.0108 56.9373 50.6121 59.1225C50.6121 59.1225 52.8672 56.7636 56.2225 55.8916Z" fill="black"/>
<path opacity="0.1" d="M56.2701 56.7759C56.2701 56.7759 52.8549 59.5779 53.5231 59.7215C54.1913 59.865 56.2701 56.7759 56.2701 56.7759Z" fill="black"/>
<path opacity="0.1" d="M57.9116 57.7524C57.9116 57.7524 56.9966 59.6364 57.559 59.5088C58.1214 59.3812 57.9116 57.7524 57.9116 57.7524Z" fill="black"/>
<path opacity="0.1" d="M70.3103 66.4937L69.933 66.3856C70.0405 66.0311 70.0705 65.744 69.9823 65.6111C69.5504 64.9695 64.0193 63.6261 63.3158 62.5538C62.6122 61.4816 60.9795 60.8223 60.9795 60.8223C60.9795 60.8223 59.2957 59.7979 59.1811 58.8727C59.0665 57.9476 59.5108 57.2582 59.6237 56.8523C59.7365 56.4465 60.0221 52.5261 60.0221 52.5261C60.0221 52.5261 61.9176 38.5798 53.4631 39.7903C53.4631 39.7903 48.9353 41.8107 49.1557 46.7679C49.3156 49.9616 49.6624 53.1431 50.1942 56.2958C50.1942 56.2958 49.2685 63.7555 53.1228 65.6784C56.9771 67.6014 60.544 69.1823 60.544 69.1823C60.544 69.1823 66.5723 69.8327 67.3235 70.1039C67.6073 70.2067 68.1204 69.6767 68.6229 68.9483L68.9086 69.2159L73.8208 73.8346C73.8208 73.8346 80.1594 75.1798 81.9226 72.6436C83.4125 70.5097 73.4928 67.4188 70.3103 66.4937Z" fill="black"/>
<path d="M50.6279 20.9861C50.4553 21.02 50.29 21.0842 50.1395 21.1757C49.9632 21.3228 49.9632 21.5745 49.9191 21.7943C49.8673 22.1 49.7467 22.3898 49.5665 22.6414C49.7671 22.6562 49.9683 22.6228 50.1536 22.544C50.1234 22.7865 50.0642 23.0246 49.9773 23.2529C50.0871 23.2557 50.1955 23.2266 50.2893 23.1691C50.3831 23.1115 50.4584 23.028 50.5062 22.9286C50.5995 22.7288 50.6733 22.5205 50.7266 22.3065C50.7432 22.2425 50.7719 22.1823 50.8113 22.1292C50.9735 21.9361 51.275 22.0229 51.5253 22.0477C51.7337 22.0654 51.943 22.0267 52.1315 21.9357C52.32 21.8447 52.4808 21.7047 52.5974 21.5302C52.8636 21.1243 52.8795 20.0858 52.2447 19.9759C51.5818 19.866 51.1692 20.7841 50.6279 20.9861Z" fill="#965D7B"/>
<g opacity="0.1">
<path opacity="0.1" d="M50.1226 21.3935C50.1385 21.3066 50.1491 21.2162 50.1685 21.1294C50.001 21.2765 49.9922 21.5264 49.9481 21.7479C49.9259 21.8758 49.891 22.001 49.8441 22.1219C49.9829 21.8995 50.0775 21.6521 50.1226 21.3935Z" fill="black"/>
<path opacity="0.1" d="M50.1783 22.8574C50.2661 22.6293 50.3253 22.3912 50.3546 22.1484C50.178 22.2231 49.9869 22.2565 49.7957 22.2459C49.74 22.3706 49.6721 22.4893 49.5929 22.6004C49.7928 22.6159 49.9936 22.5831 50.1783 22.5047C50.149 22.7474 50.0898 22.9856 50.002 23.2136C50.1118 23.2162 50.22 23.187 50.3138 23.1295C50.4076 23.072 50.4829 22.9886 50.5309 22.8893C50.5748 22.8087 50.6103 22.7238 50.6367 22.6358C50.585 22.7085 50.5158 22.7669 50.4357 22.8056C50.3556 22.8443 50.267 22.8621 50.1783 22.8574Z" fill="black"/>
<path opacity="0.1" d="M51.7263 21.652C51.4759 21.6272 51.1727 21.5403 51.0104 21.7335C50.9718 21.787 50.9432 21.847 50.9258 21.9107C50.9099 21.9568 50.8958 22.0047 50.8835 22.0525C51.051 21.9196 51.3225 21.9905 51.55 22.0135C51.7583 22.0306 51.9674 21.9917 52.1557 21.9008C52.3441 21.8098 52.5051 21.6701 52.622 21.496C52.6754 21.41 52.7153 21.3161 52.7401 21.2178C52.6194 21.368 52.4638 21.4861 52.287 21.5618C52.1103 21.6376 51.9177 21.6685 51.7263 21.652Z" fill="black"/>
</g>
<path d="M55.9351 35.6235L58.6239 38.8739L58.2731 42.1545L55.0235 37.0414L55.9351 35.6235Z" fill="#DCE6F2"/>
<path opacity="0.1" d="M58.6222 38.8739L58.2925 41.9595L58.2713 42.1545L55.3391 37.5394L55.0235 37.0414L55.1152 36.8978L55.9333 35.6235L56.1149 35.8433L58.6222 38.8739Z" fill="black"/>
<path d="M60.0186 31.2227C59.1088 31.485 58.2396 32.3853 57.4832 33.4788C56.9719 34.2333 56.5147 35.0234 56.1149 35.8431C55.8663 36.3429 55.6477 36.8232 55.4661 37.2414L55.3391 37.5392C55.0323 38.2676 54.8613 38.755 54.8613 38.755C54.8613 38.755 47.8967 33.4912 48.9987 33.1368C49.369 33.018 49.8556 32.2205 50.337 31.2156L50.3969 31.088C50.702 30.4428 51.0017 29.7233 51.2679 29.0463C51.8128 27.655 52.2165 26.4463 52.2165 26.4463C52.2165 26.4463 62.7956 30.4251 60.0186 31.2227Z" fill="#EFB7B9"/>
<path d="M64.185 26.1504C64.185 26.1504 65.793 29.0747 67.9529 28.6759C70.1128 28.2772 69.2242 27.1057 69.2242 27.1057L64.185 26.1504Z" fill="#444053"/>
<path d="M61.0695 127.376C59.6448 128.03 56.4235 127.376 56.4235 127.376L55.0658 127.291C53.3027 127.177 50.3511 126.986 49.3073 126.901C47.7839 126.775 48.1577 126.148 48.1577 126.148V122.357L55.549 120.475C55.549 120.475 58.4705 121.48 59.271 122.357C60.031 123.193 60.4753 122.55 61.8312 122.791C61.8982 122.803 61.9687 122.818 62.0427 122.835C63.3299 123.131 64.0281 123.248 64.4407 124.321C64.5236 124.546 64.5902 124.777 64.6399 125.012C65.0208 126.738 62.4924 126.726 61.0695 127.376Z" fill="#A36468"/>
<path opacity="0.1" d="M64.4407 124.321C64.1758 124.487 63.8974 124.63 63.6084 124.749C62.6387 125.194 61.7166 125.737 60.7362 126.157C59.7559 126.577 58.6998 126.876 57.6383 126.796C57.0829 126.756 56.5152 126.619 55.9845 126.779C55.6562 126.906 55.3471 127.078 55.0658 127.291C53.3027 127.177 50.3511 126.986 49.3073 126.901C47.7839 126.775 48.1577 126.148 48.1577 126.148V125.705C48.2124 125.705 48.2741 125.689 48.3446 125.683C48.7095 125.678 49.0728 125.732 49.4201 125.845C50.1854 126.054 50.9471 126.259 51.7123 126.465C51.7752 126.226 51.8858 126.003 52.0374 125.809C52.189 125.614 52.3783 125.453 52.5939 125.334C53.0306 125.101 53.5208 124.988 54.015 125.006C55.2016 125.022 56.3248 125.588 57.5096 125.644C57.8409 125.675 58.1744 125.619 58.4776 125.481C58.6398 125.4 58.7826 125.281 58.9413 125.191C59.1953 125.067 59.4636 124.976 59.74 124.92C60.517 124.725 61.2799 124.478 62.0233 124.179C62.2349 124.095 62.4818 123.945 62.4536 123.718C62.4165 123.417 61.9458 123.381 61.8223 123.105C61.8006 123.055 61.7905 123.001 61.793 122.946C61.7954 122.892 61.8103 122.839 61.8365 122.791C61.9035 122.803 61.974 122.818 62.048 122.835C63.3299 123.131 64.0281 123.248 64.4407 124.321Z" fill="black"/>
<path d="M59.5638 135.67C57.8887 136.44 54.0979 135.67 54.0979 135.67L52.5022 135.576C50.4358 135.443 46.9553 135.222 45.7263 135.117C43.9332 134.969 44.374 134.231 44.374 134.231V129.763L53.0717 127.548C53.0717 127.548 56.5099 128.73 57.4515 129.763C58.3454 130.747 58.862 129.99 60.4647 130.274C60.5441 130.288 60.627 130.306 60.7134 130.325C62.2279 130.68 63.0496 130.812 63.5344 132.074C63.6326 132.339 63.711 132.611 63.7689 132.888C64.2062 134.919 61.2388 134.903 59.5638 135.67Z" fill="#A36468"/>
<path opacity="0.1" d="M63.5309 132.074C63.2194 132.27 62.892 132.439 62.5523 132.579C61.4116 133.102 60.3254 133.74 59.1723 134.234C58.0192 134.729 56.7762 135.08 55.5261 134.988C54.8737 134.94 54.2055 134.775 53.5866 134.966C53.1988 135.118 52.8339 135.323 52.5022 135.576C50.4358 135.443 46.9553 135.222 45.7263 135.117C43.9332 134.968 44.374 134.231 44.374 134.231V133.71C44.447 133.698 44.5205 133.69 44.5944 133.685C45.0239 133.677 45.4517 133.741 45.8603 133.875L48.5562 134.605C48.6313 134.323 48.7628 134.06 48.9426 133.831C49.1223 133.602 49.3466 133.413 49.6018 133.274C50.1157 132.999 50.6931 132.865 51.2751 132.888C52.6715 132.907 53.9921 133.572 55.3868 133.639C55.7752 133.675 56.1662 133.609 56.5223 133.449C56.7145 133.352 56.8749 133.212 57.0689 133.107C57.3671 132.961 57.683 132.853 58.0086 132.788C58.9179 132.558 59.8109 132.266 60.6816 131.916C60.9302 131.817 61.2211 131.64 61.1876 131.374C61.1436 131.02 60.5899 130.977 60.4436 130.651C60.4189 130.592 60.4077 130.528 60.4107 130.465C60.4138 130.401 60.431 130.338 60.4612 130.282C60.5406 130.296 60.6234 130.314 60.7098 130.334C62.2244 130.674 63.046 130.812 63.5309 132.074Z" fill="black"/>
<path d="M55.7729 105.011L55.3021 116.147C55.3021 116.147 54.5969 118.421 54.9795 119.071C55.3621 119.721 56.0074 120.37 55.7729 120.755C55.5384 121.139 52.7173 125.297 51.8058 123.702C50.8942 122.107 49.995 115.195 49.995 115.195L50.836 106.658L55.7729 105.011Z" fill="#444053"/>
<path d="M57.8146 77.2671L59.1229 79.0252V94.3167C59.1229 94.3167 59.5055 98.393 59.1229 99.2349C58.7403 100.077 56.8008 101.76 56.8008 101.76L55.1698 93.3419L55.5225 84.4361L57.8146 77.2671Z" fill="#444053"/>
<path opacity="0.1" d="M55.7729 105.011L55.3021 116.147C55.3021 116.147 54.5969 118.421 54.9795 119.071C55.3621 119.721 56.0074 120.37 55.7729 120.755C55.5384 121.139 52.7173 125.297 51.8058 123.702C50.8942 122.107 49.995 115.195 49.995 115.195L50.836 106.658L55.7729 105.011Z" fill="black"/>
<path opacity="0.1" d="M57.8146 77.2671L59.1229 79.0252V94.3167C59.1229 94.3167 59.5055 98.393 59.1229 99.2349C58.7403 100.077 56.8008 101.76 56.8008 101.76L55.1698 93.3419L55.5225 84.4361L57.8146 77.2671Z" fill="black"/>
<path d="M59.1229 70.7452V79.0166L57.6542 85.4554C57.6542 85.4554 57.1834 100.993 57.5942 102.883C58.0051 104.772 56.1837 106.546 56.1837 106.546C56.1837 106.546 55.1258 106.665 55.1258 107.491C55.1258 108.316 53.3626 110.681 53.3626 110.681L53.4208 115.289C53.4208 115.289 54.186 123.915 53.01 125.568C51.8339 127.222 53.4208 127.459 53.4208 127.459C51.9521 132.303 44.8994 131.181 44.2628 130.649C43.6263 130.118 44.2628 119.661 44.2628 119.661C44.2628 119.661 45.8391 103.71 47.0734 103.001C48.3076 102.292 47.1333 101.406 47.5441 100.343C47.9549 99.2794 47.1333 96.3852 47.1333 96.3852C47.1333 96.3852 46.7807 92.9576 45.8991 91.304C45.0175 89.6505 45.1339 85.1009 45.1339 85.1009C45.1339 85.1009 42.6654 81.792 41.9319 80.4929C41.1984 79.1938 40.7259 75.8264 40.9022 73.285C41.0221 71.5676 41.9196 69.0669 42.4891 67.6277C42.7624 66.9383 42.9599 66.4917 42.9599 66.4917L43.1274 66.536L52.7578 69.0704L59.1229 70.7452Z" fill="#444053"/>
<path opacity="0.1" d="M60.0186 31.2229C59.1088 31.4852 58.2395 32.3855 57.4831 33.479H57.2857C56.177 33.4798 55.0877 33.1864 54.1279 32.6284C53.1682 32.0704 52.372 31.2677 51.8198 30.3013C51.5891 29.9008 51.4034 29.4758 51.2662 29.0341C51.811 27.6428 52.2148 26.4341 52.2148 26.4341C52.2148 26.4341 62.7956 30.4253 60.0186 31.2229Z" fill="black"/>
<path d="M63.589 26.7919C63.5906 27.7617 63.3707 28.7188 62.9463 29.5897C62.5218 30.4605 61.9042 31.2218 61.1409 31.815C60.3777 32.4081 59.4892 32.8172 58.5438 33.0107C57.5985 33.2043 56.6216 33.1771 55.6883 32.9314C54.7551 32.6857 53.8904 32.2279 53.1609 31.5933C52.4314 30.9587 51.8565 30.1643 51.4806 29.2712C51.1046 28.3781 50.9376 27.4102 50.9925 26.4421C51.0473 25.4739 51.3225 24.5313 51.7969 23.6869C51.988 23.3438 52.2111 23.0197 52.4634 22.7192C52.8792 22.2213 53.3678 21.7898 53.9127 21.4396C54.833 20.8517 55.8893 20.5139 56.9783 20.4591C58.0673 20.4043 59.1518 20.6344 60.1259 21.1269C61.1 21.6194 61.9304 22.3575 62.5358 23.2691C63.1413 24.1806 63.5011 25.2345 63.5802 26.3276C63.5837 26.4836 63.589 26.6378 63.589 26.7919Z" fill="#EFB7B9"/>
<path opacity="0.1" d="M58.2924 41.9592L58.2713 42.1542L55.3391 37.5462C55.0323 38.2746 54.8613 38.762 54.8613 38.762C54.8613 38.762 47.8967 33.4911 48.9987 33.1367C49.369 33.0179 49.8556 32.2204 50.337 31.2155L50.3969 31.0879C50.9083 32.6192 53.8792 35.6799 55.1152 36.9064C55.258 37.0482 55.3762 37.1651 55.4678 37.2502L55.6565 37.4274L55.7552 37.5267C56.2048 37.9928 58.102 40.0487 58.2924 41.9592Z" fill="black"/>
<path d="M60.4841 57.5948L60.1632 67.9752L60.1068 69.8237C60.1068 69.8237 56.3054 69.4692 52.7579 69.0793C49.9015 68.7656 47.2092 68.4271 46.7948 68.2286C46.2659 67.9787 45.1321 67.7855 44.2382 67.6633C43.547 67.5693 43.004 67.5197 43.004 67.5197C43.004 67.5197 42.8012 67.58 42.4891 67.6367C41.8085 67.7607 40.6131 67.8618 39.9166 67.2539C39.0262 66.4758 41.366 63.649 41.9496 62.9702L42.0783 62.8231L41.8579 60.7761L41.2849 55.468C41.2849 55.468 40.9322 52.4108 40.4033 50.7714C40.2619 50.3053 40.1598 49.828 40.0983 49.3447C39.9017 47.8474 40.0024 46.3258 40.3945 44.8678C40.562 44.2483 40.6683 43.6137 40.7118 42.9732C40.8 41.3338 45.781 34.9978 47.0152 34.4218C47.5704 34.1616 48.0172 33.7138 48.2776 33.1564C48.3636 32.9812 48.4282 32.7961 48.4698 32.6052C48.9988 30.3012 50.337 31.2157 50.337 31.2157C50.6597 33.0182 55.6548 37.7892 55.6548 37.7892L55.7535 37.8885C56.249 38.3989 58.4565 40.795 58.2996 42.8403C58.2682 43.6015 58.3813 44.3618 58.6328 45.0805C59.6488 48.2963 60.2329 51.6341 60.3695 55.0054L60.4841 57.5948Z" fill="#DCE6F2"/>
<path opacity="0.1" d="M53.4067 45.2681C53.4067 45.2681 52.1725 48.281 51.2468 48.7684C50.3211 49.2558 53.8475 49.7963 53.4067 45.2681Z" fill="black"/>
<path opacity="0.1" d="M54.3324 50.8955C54.3324 50.8955 51.5113 51.25 51.5113 51.7817C51.5113 52.3134 54.3324 50.8955 54.3324 50.8955Z" fill="black"/>
<path opacity="0.1" d="M57.2857 54.3516C57.2857 54.3516 53.1863 63.1245 52.0403 63.3903C50.8942 63.6562 57.2857 54.3516 57.2857 54.3516Z" fill="black"/>
<path opacity="0.1" d="M55.5772 38.2342L52.1866 39.7158L48.0942 33.5021C48.1802 33.3269 48.2448 33.1418 48.2864 32.9509C48.8154 30.6469 50.1536 31.5614 50.1536 31.5614C50.4763 33.3639 55.4714 38.1349 55.4714 38.1349L55.5772 38.2342Z" fill="black"/>
<path d="M55.7535 37.8797L52.3629 39.3613L48.2706 33.1476C48.3566 32.9724 48.4211 32.7873 48.4628 32.5964C48.9917 30.2924 50.33 31.2069 50.33 31.2069C50.6526 33.0094 55.6477 37.7804 55.6477 37.7804L55.7535 37.8797Z" fill="#DCE6F2"/>
<path opacity="0.1" d="M60.1068 69.8237C60.1068 69.8237 56.3054 69.4692 52.7579 69.0793L59.1229 70.7542V72.7037C58.8444 72.9571 58.6028 73.0883 58.4459 73.0209C57.7124 72.7108 51.7264 71.736 51.7264 71.736C51.7264 71.736 48.2494 69.9637 44.4974 67.8369C44.4063 67.7862 44.318 67.7306 44.2329 67.6703C43.7954 67.3718 43.4184 66.9922 43.1221 66.552C42.4291 65.5436 42.0906 64.248 41.9443 62.9773C41.862 62.249 41.8314 61.5158 41.8526 60.7832C41.8708 59.9524 41.9462 59.1239 42.0783 58.3037C41.7154 55.1267 41.5388 51.931 41.5493 48.7332C41.5934 43.7708 46.2217 41.9984 46.2217 41.9984C54.7291 41.2452 52.0914 55.0692 52.0914 55.0692C52.0914 55.0692 51.5994 58.9683 51.4654 59.3671C51.3314 59.7658 50.8501 60.4305 50.9153 61.3609C50.9806 62.2914 52.6062 63.4044 52.6062 63.4044C52.6062 63.4044 54.1931 64.1523 54.8472 65.26C55.3233 66.077 58.4159 67.1847 60.1632 67.9752L60.1068 69.8237Z" fill="black"/>
<path opacity="0.1" d="M62.9561 22.8574C62.9593 23.1493 62.8991 23.4384 62.7797 23.7045C62.6894 23.9217 62.5845 24.1325 62.4659 24.3355C62.2803 24.7089 62.0169 25.0377 61.6936 25.2996C61.2863 25.5921 60.7715 25.6736 60.2831 25.7923C59.7947 25.9111 59.2869 26.1007 59.0083 26.519C58.8573 26.7879 58.7563 27.0821 58.7103 27.3874C58.6636 27.6924 58.5425 27.981 58.3577 28.2275C58.2615 28.3478 58.1282 28.4326 57.9789 28.4685C57.8295 28.5045 57.6725 28.4895 57.5325 28.426C57.3851 28.3261 57.2732 28.1814 57.2134 28.013C57.0124 27.5575 56.9612 27.0524 56.8801 26.5615C56.799 26.0706 56.6844 25.5655 56.3847 25.1702C56.0849 24.775 55.5542 24.5145 55.0835 24.6687C54.9259 24.7297 54.7822 24.822 54.661 24.9402C54.5398 25.0583 54.4436 25.1999 54.3782 25.3563C54.2479 25.6696 54.1584 25.9984 54.112 26.3347C53.8933 27.5375 53.6353 28.7332 53.3379 29.9218C53.3288 29.9705 53.309 30.0166 53.2797 30.0565C53.2329 30.1035 53.1696 30.1302 53.1034 30.1309C52.7085 30.1841 52.3294 29.9059 51.9309 29.936C51.8898 29.9387 51.8491 29.9453 51.8092 29.9555C51.165 28.83 50.8805 27.5326 50.9944 26.2392C51.1082 24.9457 51.6149 23.7188 52.4457 22.7245L52.4775 22.7156C52.7426 22.621 52.9834 22.4685 53.1828 22.269C53.4373 22.013 53.673 21.7387 53.888 21.4484L54.0291 21.2712C54.4344 20.7804 54.896 20.3396 55.4044 19.9579C55.5431 19.8436 55.7023 19.757 55.8734 19.7027C56.0198 19.674 56.1698 19.6692 56.3177 19.6885C56.9266 19.762 57.5405 19.7851 58.1532 19.7576C58.5801 19.6902 59.0103 19.6464 59.442 19.6265C60.5581 19.6584 61.5103 20.4506 62.2155 21.319C62.5946 21.7639 62.9331 22.2761 62.9561 22.8574Z" fill="black"/>
<path d="M50.9735 23.8552C50.7284 24.2593 50.2859 24.534 50.1201 24.9771C49.8768 25.6205 50.2876 26.4215 49.9103 26.9958C49.7851 27.1889 49.5788 27.3325 49.5083 27.554C49.3884 27.928 49.7164 28.3268 49.6317 28.7114C49.5471 29.096 49.0428 29.4203 49.1768 29.796C49.256 29.9599 49.3949 30.0868 49.5647 30.1505C49.8319 30.3045 50.1394 30.3731 50.4463 30.3472C50.9277 30.2674 51.2856 29.7925 51.774 29.757C52.1707 29.7287 52.5498 30.0051 52.9448 29.9537C53.011 29.9514 53.0739 29.9242 53.1211 29.8775C53.151 29.838 53.171 29.7918 53.1793 29.7428C53.4755 28.5554 53.7341 27.3597 53.9551 26.1557C54.0001 25.8193 54.089 25.4904 54.2195 25.1774C54.2855 25.0212 54.3819 24.88 54.503 24.7619C54.6241 24.6438 54.7675 24.5512 54.9248 24.4897C55.3956 24.3373 55.9245 24.5961 56.226 24.9913C56.5275 25.3865 56.6421 25.8916 56.7233 26.3825C56.8044 26.8735 56.8555 27.3786 57.0547 27.8341C57.1153 28.003 57.2276 28.1482 57.3756 28.2488C57.6401 28.403 57.9963 28.2807 58.199 28.0503C58.3848 27.8037 58.506 27.5143 58.5517 27.2084C58.5977 26.9037 58.6986 26.61 58.8496 26.3418C59.1282 25.9235 59.6378 25.7339 60.1244 25.6151C60.6111 25.4964 61.1241 25.4131 61.535 25.1207C61.8578 24.859 62.1212 24.5309 62.3072 24.1583C62.5682 23.701 62.8115 23.2048 62.7904 22.6784C62.7674 22.1042 62.4289 21.592 62.0674 21.1454C61.3622 20.2769 60.4083 19.4847 59.2922 19.4546C58.8604 19.4727 58.43 19.5165 58.0033 19.5857C57.3906 19.6134 56.7766 19.5897 56.1679 19.5148C56.0198 19.497 55.8699 19.5024 55.7235 19.5308C55.5523 19.5834 55.3933 19.6702 55.2563 19.786C54.7474 20.1671 54.2852 20.6073 53.8792 21.0975C53.6175 21.4464 53.3336 21.7779 53.0294 22.09C52.83 22.2898 52.5892 22.4429 52.3241 22.5384C52.1478 22.588 51.9715 22.5526 51.804 22.6075C51.2838 22.7724 51.2151 23.4547 50.9735 23.8552Z" fill="#965D7B"/>
<path opacity="0.1" d="M67.9529 28.6742C66.5424 28.9347 65.3734 27.788 64.7263 26.9515C64.5275 26.6974 64.3467 26.4297 64.185 26.1504L69.0267 27.0684L69.2224 27.1057C69.2224 27.1057 70.1128 28.2772 67.9529 28.6742Z" fill="black"/>
<g opacity="0.1">
<path opacity="0.1" d="M49.6322 28.2045C49.652 27.9727 49.6168 27.7395 49.5296 27.5239C49.5296 27.5416 49.5137 27.5594 49.5083 27.5771C49.4323 27.8146 49.5349 28.0609 49.6003 28.3073C49.6144 28.2742 49.6251 28.2397 49.6322 28.2045Z" fill="black"/>
<path opacity="0.1" d="M50.0514 25.3032C50.0332 25.5483 50.0379 25.7945 50.0655 26.0387C50.0837 25.7937 50.0789 25.5474 50.0514 25.3032Z" fill="black"/>
<path opacity="0.1" d="M62.2966 23.6461C62.1111 24.0195 61.8477 24.3483 61.5244 24.6102C61.1171 24.9026 60.604 24.9842 60.1138 25.1029C59.6237 25.2217 59.1176 25.4113 58.839 25.8296C58.6883 26.0985 58.5874 26.3928 58.5411 26.698C58.4951 27.0038 58.3739 27.2931 58.1884 27.5398C57.9857 27.7702 57.6295 27.8943 57.365 27.7383C57.217 27.6378 57.1047 27.4925 57.0441 27.3236C56.8449 26.8681 56.792 26.3648 56.7126 25.8721C56.6333 25.3794 56.5152 24.8761 56.2154 24.4808C55.9157 24.0856 55.385 23.8251 54.9142 23.9793C54.7568 24.0405 54.6132 24.1329 54.4921 24.2511C54.3709 24.3692 54.2746 24.5106 54.2089 24.6669C54.0784 24.9799 53.9895 25.3089 53.9445 25.6452C53.7246 26.8492 53.466 28.0449 53.1687 29.2324C53.1604 29.2814 53.1404 29.3276 53.1105 29.3671C53.0633 29.4138 53.0003 29.441 52.9342 29.4433C52.5392 29.4947 52.1601 29.2182 51.7634 29.2466C51.275 29.282 50.9171 29.757 50.4357 29.835C50.1287 29.8627 49.8207 29.7939 49.5541 29.6382C49.4316 29.5852 49.3216 29.5067 49.2315 29.4078C49.1902 29.4672 49.1629 29.5352 49.1516 29.6068C49.1403 29.6783 49.1453 29.7515 49.1662 29.8208C49.2439 29.9858 49.3833 30.1132 49.5541 30.1753C49.8207 30.3309 50.1287 30.3997 50.4357 30.372C50.9171 30.294 51.275 29.819 51.7634 29.7836C52.1601 29.7552 52.5392 30.0317 52.9342 29.9803C53.0003 29.978 53.0633 29.9508 53.1105 29.9041C53.1404 29.8646 53.1604 29.8184 53.1687 29.7694C53.4649 28.5879 53.7235 27.3921 53.9445 26.1822C53.9895 25.8459 54.0784 25.5169 54.2089 25.2039C54.2746 25.0476 54.3709 24.9062 54.4921 24.7881C54.6132 24.6699 54.7568 24.5775 54.9142 24.5163C55.385 24.3621 55.9139 24.6226 56.2154 25.0178C56.5169 25.4131 56.6315 25.9182 56.7126 26.4091C56.7938 26.9 56.8449 27.4051 57.0441 27.8606C57.1047 28.0296 57.217 28.1748 57.365 28.2753C57.6295 28.4295 57.9857 28.3072 58.1884 28.0768C58.3739 27.8301 58.4951 27.5408 58.5411 27.235C58.5874 26.9298 58.6883 26.6356 58.839 26.3666C59.1176 25.9483 59.6272 25.7604 60.1138 25.6399C60.6005 25.5194 61.1135 25.4396 61.5244 25.1472C61.8477 24.8853 62.1111 24.5565 62.2966 24.1831C62.5576 23.7276 62.8009 23.2313 62.7798 22.705C62.7763 22.6373 62.7692 22.5699 62.7586 22.5029C62.6735 22.9086 62.5171 23.2957 62.2966 23.6461Z" fill="black"/>
</g>
<path opacity="0.1" d="M62.7868 23.6993C63.239 24.5074 63.507 25.4063 63.5715 26.3312C62.0005 25.445 60.5229 24.472 59.7771 24.1335C58.4776 23.5433 53.6183 23.6319 51.7917 23.6869C51.9827 23.3438 52.2059 23.0198 52.4581 22.7192C52.8755 22.2209 53.366 21.7894 53.9128 21.4396C54.6368 20.9777 55.4469 20.6691 56.2937 20.5326C57.1404 20.3961 58.0059 20.4346 58.8373 20.6458C59.6687 20.857 60.4486 21.2364 61.1292 21.7608C61.8098 22.2852 62.3768 22.9436 62.7957 23.6957L62.7868 23.6993Z" fill="black"/>
<path opacity="0.1" d="M68.3937 27.9227C67.5456 28.185 66.1615 27.6781 64.7263 26.9515C64.5275 26.6974 64.3467 26.4297 64.185 26.1504L69.0267 27.0684C69.3476 27.2882 69.4287 27.6019 68.3937 27.9227Z" fill="black"/>
<path d="M57.6612 17.5549C57.6612 17.5549 53.0329 17.2891 51.7317 19.8146L51.5219 22.053L51.1692 22.014L51.0987 23.5365C51.0987 23.5365 58.1726 23.2263 59.7823 23.9565C61.3921 24.6867 66.3943 28.366 68.399 27.7457C70.4037 27.1254 68.2227 26.5494 68.2227 26.5494C68.2227 26.5494 65.4633 25.3743 65.4633 24.4527C65.4633 23.5311 64.7792 18.6626 57.6612 17.5549Z" fill="#444053"/>
<path opacity="0.1" d="M48.7343 100.534C48.7343 100.534 51.6876 103.414 52.9659 103.193C52.9659 103.193 49.3514 102.882 48.7343 100.534Z" fill="black"/>
<path opacity="0.1" d="M48.1171 101.869C48.1171 101.869 48.3816 103.35 49.0869 103.205C49.7922 103.06 48.1171 101.869 48.1171 101.869Z" fill="black"/>
<path opacity="0.1" d="M52.7455 126.631C52.7455 126.631 48.5527 129.91 49.2597 129.999C49.9667 130.087 52.7455 126.631 52.7455 126.631Z" fill="black"/>
<path d="M58.3542 61.5576L71.9306 59.3369V72.257L59.0312 71.5782L58.3542 61.5576Z" fill="white"/>
<path opacity="0.05" d="M58.3542 61.5576L71.9306 59.3369V72.257L59.0312 71.5782L58.3542 61.5576Z" fill="black"/>
<path d="M71.9307 59.3369L88.2119 60.5616L87.3109 71.8051L71.9307 72.257V59.3369Z" fill="white"/>
<path opacity="0.1" d="M71.9307 59.3369L88.2119 60.5616L87.3109 71.8051L71.9307 72.257V59.3369Z" fill="black"/>
<path d="M76.9364 55.3936L71.9307 59.3369L88.2119 60.5616L90.8726 56.5261L76.9364 55.3936Z" fill="white"/>
<path d="M53.4385 57.2507L65.6608 55.7549L71.9307 59.3367L58.3542 61.5574L53.4385 57.2507Z" fill="white"/>
<path d="M74.9069 62.6919V80.3565L68.5471 79.7007L65.7807 79.4172L64.9379 79.3286L62.1732 79.0432L58.3542 78.6498V61.5576L71.9289 62.4863L74.9069 62.6919Z" fill="white"/>
<path d="M88.2119 60.5615V77.7884L83.1145 78.772L80.6355 79.2505L74.9069 80.3564V62.6918L88.2119 60.5615Z" fill="white"/>
<path opacity="0.05" d="M88.2119 60.5615V77.7884L83.1145 78.772L80.6355 79.2505L74.9069 80.3564V62.6918L88.2119 60.5615Z" fill="black"/>
<path d="M53.4385 65.2759L58.3542 61.5576L74.9069 62.6919L72.4702 66.8178L53.4385 65.2759Z" fill="white"/>
<path opacity="0.1" d="M53.4385 65.2759L58.3542 61.5576L74.9069 62.6919L72.4702 66.8178L53.4385 65.2759Z" fill="white"/>
<path d="M88.2119 60.5615L74.9069 62.6918L79.2373 66.5909L93.4891 64.1877L88.2119 60.5615Z" fill="white"/>
<path opacity="0.1" d="M88.2119 60.5615L74.9069 62.6918L79.2373 66.5909L93.4891 64.1877L88.2119 60.5615Z" fill="white"/>
<path opacity="0.1" d="M83.1145 78.7719L80.6355 79.2505V75.5694L82.9576 74.981L83.1145 78.7719Z" fill="white"/>
<path opacity="0.1" d="M68.5471 77.2656V79.7008L65.7807 79.4172V77.2656H68.5471Z" fill="white"/>
<path opacity="0.1" d="M64.9379 78.0332V79.3288L62.1732 79.0434V78.0332H64.9379Z" fill="white"/>
<path opacity="0.1" d="M73.2425 75.9735C71.3471 78.4104 65.0878 76.7267 65.0878 76.7267L60.4365 71.8493L59.8053 71.1883L61.0395 68.8843C61.0395 68.8843 61.3922 69.0012 61.9811 69.2068C65.0984 70.3021 74.8382 73.923 73.2425 75.9735Z" fill="black"/>
<path d="M73.0662 75.619C71.1708 78.056 64.9115 76.3723 64.9115 76.3723L60.2602 71.4949L59.629 70.8338L60.8632 68.5298C60.8632 68.5298 61.2159 68.6468 61.8048 68.8523C64.9221 69.9476 74.6619 73.5685 73.0662 75.619Z" fill="#EFB7B9"/>
<path opacity="0.1" d="M61.7977 68.8523C61.5403 69.5967 60.8861 70.6991 60.2531 71.4949L59.6219 70.8338L60.8562 68.5298C60.8562 68.5298 61.2106 68.6468 61.7977 68.8523Z" fill="black"/>
<path d="M46.398 41.2896C46.398 41.2896 41.7697 43.062 41.7256 48.0244C41.7151 51.2222 41.8917 54.4179 42.2546 57.5949C42.2546 57.5949 40.9322 64.9943 44.679 67.1211C48.4257 69.2478 51.908 71.0201 51.908 71.0201C51.908 71.0201 57.894 71.9949 58.6292 72.3051C59.3645 72.6152 61.9193 68.6275 61.5226 67.9629C61.1259 67.2983 55.6759 65.6589 55.0288 64.5512C54.3817 63.4435 52.7878 62.6974 52.7878 62.6974C52.7878 62.6974 51.1622 61.5826 51.0969 60.6521C51.0317 59.7217 51.5113 59.057 51.647 58.6583C51.7828 58.2595 52.2747 54.3604 52.2747 54.3604C52.2747 54.3604 54.9054 40.5276 46.398 41.2896Z" fill="#DCE6F2"/>
<path opacity="0.1" d="M48.5139 57.7188C48.5139 57.7188 42.2546 58.4277 42.7395 60.6431C42.7395 60.6431 45.118 58.4082 48.5139 57.7188Z" fill="black"/>
<path opacity="0.1" d="M48.5139 58.605C48.5139 58.605 44.9611 61.2191 45.6135 61.3964C46.2659 61.5736 48.5139 58.605 48.5139 58.605Z" fill="black"/>
<path opacity="0.1" d="M50.1007 59.6685C50.1007 59.6685 49.0869 61.501 49.6599 61.4053C50.2329 61.3096 50.1007 59.6685 50.1007 59.6685Z" fill="black"/>
<path d="M115.271 19.9189C115.271 19.9189 108.571 19.513 109.354 24.238C109.354 24.238 109.197 25.0728 109.95 25.452C109.95 25.452 109.962 25.0976 110.638 25.2199C110.878 25.2605 111.123 25.2724 111.366 25.2553C111.696 25.2332 112.009 25.1031 112.258 24.8849C112.258 24.8849 114.143 24.1033 114.876 21.0053C114.876 21.0053 115.419 20.3283 115.405 20.1546L114.273 20.642C114.273 20.642 114.66 21.4626 114.355 22.1449C114.355 22.1449 114.319 20.6721 114.101 20.7058C114.057 20.7058 113.513 20.9911 113.513 20.9911C113.513 20.9911 114.178 22.4196 113.676 23.46C113.676 23.46 113.866 21.6983 113.305 21.0939L112.508 21.5618C112.508 21.5618 113.286 23.0381 112.759 24.2433C112.759 24.2433 112.895 22.3948 112.341 21.6752L111.618 22.2406C111.618 22.2406 112.35 23.6974 111.904 24.697C111.904 24.697 111.846 22.5454 111.461 22.3824C111.461 22.3824 110.83 22.9424 110.735 23.1728C110.735 23.1728 111.234 24.2362 110.923 24.7874C110.923 24.7874 110.733 23.3536 110.571 23.3465C110.571 23.3465 109.941 24.2965 109.876 24.9416C109.907 24.3402 110.093 23.7572 110.417 23.2508C110.055 23.3198 109.72 23.4942 109.455 23.7524C109.455 23.7524 109.552 23.0807 110.572 23.0222C110.572 23.0222 111.101 22.3009 111.232 22.2566C111.232 22.2566 110.216 22.1715 109.601 22.4462C109.601 22.4462 110.142 21.8135 111.419 22.0917L112.124 21.5069C112.124 21.5069 110.788 21.3296 110.22 21.5264C110.22 21.5264 110.872 20.9663 112.316 21.3739L113.092 20.9078C113.092 20.9078 111.953 20.6597 111.274 20.7501C111.274 20.7501 111.99 20.362 113.32 20.782L113.875 20.5321C113.875 20.5321 113.039 20.3673 112.796 20.3407C112.553 20.3141 112.538 20.2468 112.538 20.2468C113.067 20.1583 113.61 20.2197 114.106 20.424C114.106 20.424 115.296 19.9933 115.271 19.9189Z" fill="white"/>
<path opacity="0.1" d="M135.629 43.5507C135.629 43.5507 128.929 43.1449 129.712 47.8698C129.712 47.8698 129.555 48.7046 130.308 49.0839C130.308 49.0839 130.32 48.7294 130.997 48.8517C131.238 48.8924 131.482 48.9043 131.725 48.8871C132.051 48.8634 132.361 48.734 132.607 48.5185C132.607 48.5185 134.494 47.7351 135.227 44.6371C135.227 44.6371 135.768 43.9619 135.747 43.7882L134.615 44.2738C134.615 44.2738 135.001 45.0944 134.698 45.7767C134.698 45.7767 134.661 44.3039 134.444 44.3376C134.4 44.3376 133.855 44.623 133.855 44.623C133.855 44.623 134.522 46.0532 134.019 47.0918C134.019 47.0918 134.21 45.3301 133.647 44.7258L132.859 45.1883C132.859 45.1883 133.637 46.6647 133.109 47.8698C133.109 47.8698 133.245 46.0213 132.692 45.3018L131.97 45.8689C131.97 45.8689 132.7 47.324 132.256 48.3235C132.256 48.3235 132.198 46.172 131.814 46.0089C131.814 46.0089 131.182 46.569 131.085 46.7994C131.085 46.7994 131.586 47.8627 131.276 48.4139C131.276 48.4139 131.085 46.9801 130.923 46.973C130.923 46.973 130.294 47.923 130.228 48.5681C130.26 47.9666 130.447 47.3838 130.772 46.8773C130.408 46.9465 130.073 47.1208 129.807 47.3789C129.807 47.3789 129.906 46.7072 130.927 46.6487C130.927 46.6487 131.447 45.9274 131.586 45.8831C131.586 45.8831 130.571 45.798 129.955 46.0727C129.955 46.0727 130.496 45.44 131.771 45.7271L132.477 45.1422C132.477 45.1422 131.138 44.965 130.572 45.1617C130.572 45.1617 131.225 44.6017 132.669 45.0093L133.444 44.5432C133.444 44.5432 132.304 44.2969 131.625 44.3855C131.625 44.3855 132.343 43.9973 133.672 44.4174L134.227 44.1675C134.227 44.1675 133.392 44.0027 133.147 43.9761C132.901 43.9495 132.889 43.8821 132.889 43.8821C133.418 43.7936 133.962 43.855 134.458 44.0594C134.458 44.0594 135.65 43.6252 135.629 43.5507Z" fill="white"/>
<path opacity="0.1" d="M94.926 39.3557C94.926 39.3557 96.4688 32.7822 91.7011 32.7592C91.7011 32.7592 90.9095 32.4614 90.4105 33.142C90.4105 33.142 90.7508 33.2147 90.5198 33.8633C90.4399 34.0927 90.3867 34.3306 90.3611 34.5723C90.327 34.9017 90.4006 35.2333 90.5709 35.5169C90.5709 35.5169 91.017 37.5196 93.921 38.7744C93.921 38.7744 94.4923 39.4266 94.665 39.4337L94.3829 38.2303C94.3829 38.2303 93.5119 38.4731 92.8948 38.0531C92.8948 38.0531 94.3459 38.2675 94.3477 38.0531C94.3477 38.0088 94.1714 37.4221 94.1714 37.4221C94.1714 37.4221 92.6568 37.8368 91.7223 37.1616C91.7223 37.1616 93.4167 37.6508 94.1061 37.1988L93.7887 36.3268C93.7887 36.3268 92.2019 36.8461 91.1158 36.1177C91.1158 36.1177 92.9054 36.5679 93.7059 36.1425L93.2739 35.3308C93.2739 35.3308 91.7223 35.8058 90.8178 35.1943C90.8178 35.1943 92.9336 35.5027 93.1628 35.1518C93.1628 35.1518 92.722 34.4305 92.5122 34.2958C92.5122 34.2958 91.3908 34.6112 90.8971 34.2089C90.8971 34.2089 92.3341 34.2639 92.3676 34.1115C92.3676 34.1115 91.5442 33.3263 90.9165 33.1491C91.5015 33.283 92.0417 33.5676 92.484 33.975C92.4775 33.6035 92.3636 33.242 92.156 32.9346C92.156 32.9346 92.7978 33.1473 92.685 34.1753C92.685 34.1753 93.3021 34.8133 93.3215 34.9586C93.3215 34.9586 93.5772 33.9679 93.4132 33.3104C93.4132 33.3104 93.9421 33.9555 93.4432 35.1695L93.8945 35.9759C93.8945 35.9759 94.3036 34.6821 94.1996 34.0866C94.1996 34.0866 94.6386 34.8275 93.9915 36.1886L94.3177 37.0375C94.3177 37.0375 94.7532 35.9493 94.7814 35.2652C94.7814 35.2652 95.0406 36.0415 94.4006 37.2874L94.5522 37.8794C94.5522 37.8794 94.8555 37.0801 94.9225 36.8426C94.9895 36.6051 95.0582 36.6033 95.0582 36.6033C95.0555 37.1425 94.9035 37.6703 94.6192 38.1275C94.6192 38.1275 94.8502 39.3646 94.926 39.3557Z" fill="white"/>
<path opacity="0.1" d="M80.2529 41.5961C80.2529 41.5961 74.8717 37.5499 72.948 41.9328C72.948 41.9328 72.3609 42.5443 72.7823 43.2762C72.7823 43.2762 72.9833 42.9909 73.4876 43.4641C73.6662 43.6311 73.8639 43.7763 74.0765 43.8965C74.3644 44.0577 74.6969 44.12 75.0233 44.0738C75.0233 44.0738 77.0263 44.4619 79.3325 42.2802C79.3325 42.2802 80.1559 42.0143 80.2335 41.8584L79.0187 41.6439C79.0187 41.6439 78.8917 42.5425 78.2658 42.9448C78.2658 42.9448 79.0398 41.6936 78.8388 41.6032C78.7983 41.5837 78.1917 41.5146 78.1917 41.5146C78.1917 41.5146 77.966 43.0777 76.9787 43.6679C76.9787 43.6679 78.1018 42.3015 77.9625 41.4862L77.0404 41.4366C77.0404 41.4366 76.8834 43.1008 75.7832 43.8168C75.7832 43.8168 76.9064 42.3475 76.8411 41.4401L75.9278 41.5146C75.9278 41.5146 75.7427 43.1327 74.824 43.7211C74.824 43.7211 75.9507 41.8921 75.7197 41.5447C75.7197 41.5447 74.8858 41.6634 74.6795 41.8017C74.6795 41.8017 74.519 42.9608 73.9548 43.255C73.9548 43.255 74.5807 41.9523 74.4538 41.8619C74.4538 41.8619 73.4082 42.3068 72.9974 42.8137C73.3528 42.3283 73.828 41.9447 74.3762 41.7007C74.0351 41.5582 73.6601 41.5187 73.2971 41.5872C73.2971 41.5872 73.745 41.0803 74.6301 41.5961C74.6301 41.5961 75.4588 41.2824 75.5999 41.3214C75.5999 41.3214 74.7976 40.6887 74.1329 40.5788C74.1329 40.5788 74.9334 40.3484 75.8414 41.2877L76.7565 41.1938C76.7565 41.1938 75.7391 40.3076 75.1555 40.1587C75.1555 40.1587 76.0071 40.0506 76.9892 41.1885L77.892 41.2292C77.892 41.2292 77.0756 40.3927 76.4603 40.0914C76.4603 40.0914 77.2696 40.1623 78.1512 41.2487L78.7524 41.3462C78.7524 41.3462 78.1441 40.7471 77.9537 40.5912C77.7633 40.4352 77.7897 40.3696 77.7897 40.3696C78.2802 40.588 78.7008 40.9389 79.0046 41.3834C79.0046 41.3834 80.23 41.6688 80.2529 41.5961Z" fill="white"/>
<path opacity="0.1" d="M98.1686 4.00361C98.1686 4.00361 92.7873 -0.0443435 90.8637 4.34035C90.8637 4.34035 90.2766 4.9518 90.698 5.68376C90.698 5.68376 90.899 5.39842 91.4032 5.87163C91.5828 6.03779 91.781 6.18233 91.9939 6.3023C92.2818 6.4636 92.6143 6.52584 92.9407 6.47953C92.9407 6.47953 94.9437 6.86766 97.25 4.68418C97.25 4.68418 98.0734 4.4201 98.1492 4.26237L96.9344 4.05146C96.9344 4.05146 96.8092 4.95002 96.1815 5.35234C96.1815 5.35234 96.9573 4.10109 96.7563 4.0107C96.7157 3.99121 96.1092 3.92209 96.1092 3.92209C96.1092 3.92209 95.8764 5.48881 94.8891 6.07544C94.8891 6.07544 96.0104 4.70899 95.8729 3.89373L94.9508 3.8441C94.9508 3.8441 94.7921 5.5083 93.6936 6.22254C93.6936 6.22254 94.8168 4.7533 94.7515 3.84588L93.84 3.92031C93.84 3.92031 93.6531 5.5402 92.7344 6.12861C92.7344 6.12861 93.8629 4.29959 93.6319 3.95221C93.6319 3.95221 92.7979 4.07096 92.5916 4.2092C92.5916 4.2092 92.4312 5.36829 91.867 5.66249C91.867 5.66249 92.4929 4.35985 92.3659 4.26769C92.3659 4.26769 91.3204 4.71431 90.9096 5.22119C91.2644 4.73535 91.7398 4.35157 92.2884 4.10818C91.947 3.96463 91.5711 3.92518 91.2075 3.99475C91.2075 3.99475 91.6571 3.48787 92.5423 4.00361C92.5423 4.00361 93.371 3.68814 93.512 3.7289C93.512 3.7289 92.7098 3.09619 92.045 2.98453C92.045 2.98453 92.8438 2.75591 93.7518 3.69346L94.6669 3.59952C94.6669 3.59952 93.6513 2.71337 93.0659 2.56272C93.0659 2.56272 93.9175 2.45638 94.9014 3.59421L95.8042 3.6332C95.8042 3.6332 94.9878 2.79667 94.3707 2.49715C94.3707 2.49715 95.1817 2.56804 96.0633 3.65447L96.6628 3.75194C96.6628 3.75194 96.0528 3.15999 95.8623 3.00757C95.6719 2.85515 95.6984 2.78781 95.6984 2.78781C96.189 3.0059 96.6097 3.35691 96.9132 3.80157C96.9132 3.80157 98.1386 4.07096 98.1686 4.00361Z" fill="white"/>
<path opacity="0.1" d="M118.731 9.13112C118.731 9.13112 116.58 2.73131 112.523 5.24622C112.523 5.24622 111.694 5.42345 111.629 6.25821C111.629 6.25821 111.955 6.13769 112.099 6.81117C112.153 7.05074 112.234 7.28327 112.341 7.50414C112.487 7.8014 112.724 8.04326 113.018 8.19357C113.018 8.19357 114.45 9.65573 117.581 9.17188C117.581 9.17188 118.408 9.42355 118.56 9.33671L117.678 8.46651C117.678 8.46651 117.068 9.13467 116.324 9.10808C116.324 9.10808 117.669 8.51967 117.558 8.33004C117.535 8.29282 117.075 7.89051 117.075 7.89051C117.075 7.89051 116.007 9.04782 114.861 8.97161C114.861 8.97161 116.555 8.486 116.901 7.731L116.171 7.16563C116.171 7.16563 115.102 8.44524 113.792 8.40625C113.792 8.40625 115.555 7.83734 116.001 7.05043L115.208 6.5914C115.208 6.5914 114.15 7.81961 113.053 7.78062C113.053 7.78062 115.014 6.91751 115.019 6.49924C115.019 6.49924 114.266 6.12174 114.018 6.1182C114.018 6.1182 113.231 6.98131 112.607 6.90333C112.607 6.90333 113.856 6.18554 113.803 6.03844C113.803 6.03844 112.692 5.80981 112.066 5.99413C112.632 5.796 113.24 5.75018 113.829 5.86121C113.628 5.54911 113.341 5.30274 113.002 5.15229C113.002 5.15229 113.658 4.99101 114.097 5.9197C114.097 5.9197 114.958 6.13415 115.049 6.2458C115.049 6.2458 114.746 5.26926 114.261 4.79783C114.261 4.79783 115.049 5.06544 115.264 6.361L116.072 6.80408C116.072 6.80408 115.739 5.4908 115.337 5.03177C115.337 5.03177 116.1 5.42877 116.266 6.92637L116.989 7.47401C116.989 7.47401 116.788 6.31847 116.449 5.71943C116.449 5.71943 117.077 6.24049 117.19 7.63884L117.629 8.06065C117.629 8.06065 117.467 7.22057 117.4 6.98308C117.333 6.74559 117.387 6.72964 117.387 6.72964C117.667 7.1894 117.816 7.71815 117.816 8.25737C117.816 8.25737 118.669 9.1772 118.731 9.13112Z" fill="white"/>
<path opacity="0.1" d="M104.692 9.44649C104.692 9.44649 98.0099 8.69858 98.5618 13.4643C98.5618 13.4643 98.3625 14.2902 99.0907 14.7049C99.0907 14.7049 99.1207 14.3505 99.796 14.51C100.035 14.5616 100.278 14.586 100.522 14.5826C100.852 14.5767 101.171 14.4628 101.43 14.2583C101.43 14.2583 103.354 13.5724 104.252 10.5152C104.252 10.5152 104.826 9.8683 104.814 9.69284L103.659 10.1217C103.659 10.1217 104.012 10.96 103.659 11.6264C103.659 11.6264 103.696 10.1536 103.483 10.1767C103.439 10.1767 102.882 10.4319 102.882 10.4319C102.882 10.4319 103.474 11.8941 102.92 12.9131C102.92 12.9131 103.199 11.1621 102.668 10.5311L101.848 10.9565C101.848 10.9565 102.554 12.4718 101.963 13.6486C101.963 13.6486 102.192 11.809 101.676 11.0628L100.926 11.5945C100.926 11.5945 101.582 13.085 101.087 14.0616C101.087 14.0616 101.138 11.91 100.762 11.7275C100.762 11.7275 100.103 12.2591 99.9952 12.4789C99.9952 12.4789 100.441 13.56 100.105 14.1006C100.105 14.1006 99.9864 12.6597 99.8313 12.6455C99.8313 12.6455 99.1542 13.5618 99.0555 14.2087C99.1166 13.6089 99.333 13.0358 99.6832 12.5463C99.3173 12.5971 98.9741 12.7542 98.6958 12.9982C98.6958 12.9982 98.8262 12.3336 99.8489 12.3265C99.8489 12.3265 100.404 11.6335 100.554 11.5963C100.554 11.5963 99.5439 11.4598 98.9144 11.7026C98.9144 11.7026 99.4874 11.0965 100.746 11.4492L101.489 10.9016C101.489 10.9016 100.147 10.6286 99.5791 10.8059C99.5791 10.8059 100.26 10.2742 101.681 10.7615L102.48 10.3344C102.48 10.3344 101.353 10.0296 100.671 10.0845C100.671 10.0845 101.406 9.73006 102.712 10.221L103.28 9.99945C103.28 9.99945 102.453 9.79209 102.21 9.7531C101.966 9.71411 101.958 9.64676 101.958 9.64676C102.491 9.58529 103.03 9.67363 103.516 9.90197C103.516 9.90197 104.705 9.52093 104.692 9.44649Z" fill="white"/>
<path opacity="0.1" d="M163.159 61.5823C163.159 61.5823 156.48 60.8344 157.032 65.5948C157.032 65.5948 156.833 66.4207 157.561 66.8354C157.561 66.8354 157.591 66.481 158.267 66.6387C158.505 66.6921 158.749 66.7165 158.993 66.7114C159.323 66.7063 159.642 66.5923 159.901 66.387C159.901 66.387 161.825 65.7012 162.713 62.6457C162.713 62.6457 163.288 61.997 163.276 61.8233L162.121 62.2505C162.121 62.2505 162.473 63.0905 162.121 63.7569C162.121 63.7569 162.158 62.2824 161.945 62.3072C161.9 62.3072 161.343 62.5606 161.343 62.5606C161.343 62.5606 161.936 64.0228 161.382 65.0419C161.382 65.0419 161.661 63.2926 161.13 62.6599L160.31 63.087C160.31 63.087 161.015 64.6023 160.426 65.7791C160.426 65.7791 160.654 63.9395 160.137 63.1916L159.388 63.7233C159.388 63.7233 160.044 65.2138 159.548 66.1885C159.548 66.1885 159.6 64.037 159.224 63.8562C159.224 63.8562 158.566 64.3879 158.457 64.6076C158.457 64.6076 158.905 65.6888 158.566 66.2293C158.566 66.2293 158.448 64.7884 158.293 64.7742C158.293 64.7742 157.616 65.6905 157.517 66.3374C157.578 65.7377 157.795 65.1645 158.145 64.675C157.779 64.7249 157.435 64.8821 157.157 65.1269C157.157 65.1269 157.288 64.4605 158.311 64.4535C158.311 64.4535 158.868 63.7605 159.016 63.725C159.016 63.725 158.006 63.5868 157.376 63.8296C157.376 63.8296 157.949 63.2252 159.21 63.5779L159.95 63.0303C159.95 63.0303 158.624 62.7786 158.048 62.9523C158.048 62.9523 158.728 62.4206 160.15 62.9062L160.948 62.4809C160.948 62.4809 159.822 62.176 159.139 62.231C159.139 62.231 159.875 61.8765 161.181 62.3674L161.749 62.1441C161.749 62.1441 160.922 61.9368 160.679 61.8996C160.435 61.8623 160.426 61.7932 160.426 61.7932C160.959 61.7306 161.499 61.8184 161.985 62.0467C161.985 62.0467 163.177 61.6585 163.159 61.5823Z" fill="white"/>
<path opacity="0.1" d="M173.37 67.8531C173.37 67.8531 166.691 67.1069 167.243 71.8656C167.243 71.8656 167.045 72.6915 167.772 73.1062C167.772 73.1062 167.802 72.7517 168.477 72.9112C168.715 72.9633 168.958 72.9871 169.202 72.9821C169.53 72.9754 169.847 72.8622 170.106 72.6596C170.106 72.6596 172.028 71.9737 172.917 68.9165C172.917 68.9165 173.493 68.2696 173.479 68.0941L172.324 68.5212C172.324 68.5212 172.677 69.3613 172.324 70.0277C172.324 70.0277 172.361 68.5549 172.148 68.5779C172.104 68.5779 171.547 68.8314 171.547 68.8314C171.547 68.8314 172.139 70.2935 171.586 71.3126C171.586 71.3126 171.864 69.5633 171.333 68.9324L170.514 69.3578C170.514 69.3578 171.219 70.8731 170.63 72.0499C170.63 72.0499 170.857 70.2102 170.341 69.4641L169.591 69.9958C169.591 69.9958 170.247 71.4863 169.754 72.4629C169.754 72.4629 169.803 70.3095 169.427 70.1287C169.427 70.1287 168.77 70.6604 168.66 70.8802C168.66 70.8802 169.108 71.9613 168.77 72.5018C168.77 72.5018 168.652 71.0609 168.496 71.0468C168.496 71.0468 167.819 71.9631 167.722 72.6099C167.783 72.0105 167.999 71.4374 168.348 70.9475C167.982 70.9983 167.639 71.1554 167.361 71.3995C167.361 71.3995 167.493 70.7331 168.516 70.7278C168.516 70.7278 169.071 70.0348 169.221 69.9976C169.221 69.9976 168.211 69.8611 167.581 70.1039C167.581 70.1039 168.154 69.4978 169.415 69.8505L170.156 69.3028C170.156 69.3028 168.83 69.0512 168.253 69.2248C168.253 69.2248 168.934 68.6931 170.355 69.1805L171.154 68.7534C171.154 68.7534 170.027 68.4486 169.345 68.5035C169.345 68.5035 170.08 68.149 171.386 68.64L171.954 68.4184C171.954 68.4184 171.127 68.2111 170.886 68.1721C170.644 68.1331 170.632 68.0657 170.632 68.0657C171.165 68.0043 171.704 68.0926 172.19 68.321C172.19 68.321 173.387 67.9293 173.37 67.8531Z" fill="white"/>
<path opacity="0.1" d="M150.701 15.036C150.701 15.036 145.32 10.9899 143.396 15.3728C143.396 15.3728 142.809 15.9842 143.23 16.7162C143.23 16.7162 143.431 16.4308 143.935 16.904C144.114 17.0711 144.312 17.2162 144.524 17.3365C144.812 17.4975 145.145 17.5598 145.471 17.5137C145.471 17.5137 147.474 17.9018 149.782 15.7201C149.782 15.7201 150.604 15.4543 150.681 15.2983L149.47 15.0786C149.47 15.0786 149.343 15.9771 148.717 16.3794C148.717 16.3794 149.491 15.1282 149.29 15.0378C149.25 15.0183 148.645 14.9492 148.645 14.9492C148.645 14.9492 148.417 16.5124 147.43 17.1025C147.43 17.1025 148.553 15.7361 148.414 14.9208L147.492 14.8712C147.492 14.8712 147.335 16.5354 146.235 17.2514C146.235 17.2514 147.36 15.7822 147.293 14.8747L146.379 14.9492C146.379 14.9492 146.203 16.5673 145.275 17.1557C145.275 17.1557 146.404 15.3267 146.171 14.9793C146.171 14.9793 145.337 15.0981 145.131 15.2363C145.131 15.2363 144.972 16.3954 144.408 16.6896C144.408 16.6896 145.032 15.3869 144.905 15.2966C144.905 15.2966 143.86 15.7414 143.449 16.2483C143.804 15.763 144.279 15.3793 144.828 15.1353C144.487 14.9928 144.112 14.9534 143.749 15.0218C143.749 15.0218 144.198 14.515 145.083 15.0307C145.083 15.0307 145.91 14.717 146.051 14.756C146.051 14.756 145.249 14.1233 144.584 14.0134C144.584 14.0134 145.385 13.783 146.293 14.7223L147.208 14.6284C147.208 14.6284 146.192 13.7422 145.607 13.5934C145.607 13.5934 146.459 13.4853 147.441 14.6231L148.345 14.6638C148.345 14.6638 147.527 13.8273 146.912 13.526C146.912 13.526 147.723 13.5969 148.603 14.6833L149.204 14.7808C149.204 14.7808 148.595 14.1818 148.405 14.0258C148.215 13.8698 148.243 13.8185 148.243 13.8185C148.733 14.0371 149.153 14.3881 149.456 14.8322C149.456 14.8322 150.678 15.1087 150.701 15.036Z" fill="white"/>
<path opacity="0.1" d="M154.858 44.2475C154.858 44.2475 153.003 37.7555 148.832 40.0861C148.832 40.0861 147.996 40.2155 147.892 41.0555C147.892 41.0555 148.223 40.951 148.338 41.6298C148.381 41.8736 148.452 42.1116 148.55 42.3387C148.68 42.6441 148.907 42.898 149.195 43.0618C149.195 43.0618 150.56 44.586 153.709 44.2457C153.709 44.2457 154.523 44.5328 154.678 44.4548L153.844 43.5439C153.844 43.5439 153.204 44.1854 152.464 44.1252C152.464 44.1252 153.832 43.5935 153.726 43.4038C153.705 43.3648 153.264 42.9413 153.264 42.9413C153.264 42.9413 152.146 44.0507 151.004 43.9214C151.004 43.9214 152.72 43.5137 153.097 42.78L152.392 42.1809C152.392 42.1809 151.267 43.4109 149.96 43.3152C149.96 43.3152 151.737 42.8243 152.228 42.0604L151.455 41.566C151.455 41.566 150.336 42.7445 149.25 42.6559C149.25 42.6559 151.247 41.8814 151.272 41.4649C151.272 41.4649 150.535 41.0538 150.286 41.0396C150.286 41.0396 149.463 41.8655 148.837 41.7591C148.837 41.7591 150.117 41.0981 150.071 40.9492C150.071 40.9492 148.971 40.6709 148.338 40.8251C148.911 40.6542 149.519 40.6365 150.101 40.7737C149.915 40.453 149.639 40.1943 149.308 40.0294C149.308 40.0294 149.971 39.8964 150.366 40.8446C150.366 40.8446 151.214 41.0963 151.302 41.2133C151.302 41.2133 151.043 40.2225 150.579 39.7316C150.579 39.7316 151.355 40.0329 151.512 41.3373L152.298 41.8176C152.298 41.8176 152.023 40.4884 151.642 40.0205C151.642 40.0205 152.386 40.4512 152.487 41.9541L153.192 42.5336C153.192 42.5336 153.042 41.371 152.732 40.7613C152.732 40.7613 153.337 41.3107 153.386 42.7109L153.806 43.1539C153.806 43.1539 153.682 42.3068 153.629 42.0657C153.576 41.8247 153.629 41.791 153.629 41.791C153.89 42.2625 154.015 42.7976 153.991 43.3365C153.991 43.3365 154.795 44.29 154.858 44.2475Z" fill="white"/>
<path opacity="0.1" d="M113.526 58.8762C113.526 58.8762 109.924 53.1729 106.579 56.5863C106.579 56.5863 105.814 56.9408 105.948 57.7826C105.948 57.7826 106.239 57.5877 106.538 58.208C106.646 58.4278 106.78 58.6337 106.937 58.8212C107.147 59.0771 107.435 59.2564 107.757 59.3316C107.757 59.3316 109.493 60.4092 112.42 59.1899C112.42 59.1899 113.283 59.2359 113.409 59.1172L112.352 58.4792C112.352 58.4792 111.916 59.2767 111.188 59.4273C111.188 59.4273 112.355 58.5412 112.198 58.3781C112.168 58.3462 111.625 58.0662 111.625 58.0662C111.625 58.0662 110.862 59.4451 109.73 59.6453C109.73 59.6453 111.262 58.768 111.421 57.9563L110.576 57.5824C110.576 57.5824 109.841 59.08 108.561 59.3547C108.561 59.3547 110.13 58.3817 110.386 57.5097L109.504 57.2545C109.504 57.2545 108.76 58.7025 107.693 58.924C107.693 58.924 109.393 57.616 109.299 57.2084C109.299 57.2084 108.478 57.0223 108.242 57.079C108.242 57.079 107.683 58.1052 107.051 58.1796C107.051 58.1796 108.095 57.1836 108.009 57.0525C108.009 57.0525 106.875 57.0968 106.311 57.4246C106.814 57.0969 107.394 56.9075 107.993 56.8752C107.725 56.6202 107.388 56.4495 107.025 56.3843C107.025 56.3843 107.623 56.0706 108.259 56.8681C108.259 56.8681 109.141 56.8681 109.262 56.9567C109.262 56.9567 108.734 56.0706 108.153 55.7392C108.153 55.7392 108.982 55.8101 109.497 57.017L110.387 57.2545C110.387 57.2545 109.751 56.0582 109.255 55.7161C109.255 55.7161 110.089 55.9182 110.606 57.3343L111.438 57.6887C111.438 57.6887 110.969 56.6165 110.498 56.1149C110.498 56.1149 111.232 56.4694 111.671 57.8004L112.2 58.107C112.2 58.107 111.847 57.3289 111.722 57.1145C111.597 56.9 111.646 56.8504 111.646 56.8504C112.028 57.2292 112.297 57.7073 112.424 58.231C112.424 58.231 113.478 58.9364 113.526 58.8762Z" fill="white"/>
<path d="M137.2 29.7359C137.2 29.7359 133.774 23.9244 130.324 27.2316C130.324 27.2316 129.548 27.5683 129.657 28.4084C129.657 28.4084 129.952 28.2205 130.234 28.8497C130.335 29.0734 130.462 29.284 130.613 29.4771C130.815 29.7385 131.098 29.9253 131.417 30.0088C131.417 30.0088 133.118 31.1395 136.082 30.0088C136.082 30.0088 136.943 30.0815 137.073 29.9663L136.038 29.2963C136.038 29.2963 135.58 30.0779 134.846 30.2073C134.846 30.2073 136.04 29.3513 135.89 29.19C135.858 29.1563 135.326 28.8586 135.326 28.8586C135.326 28.8586 134.52 30.2144 133.386 30.3792C133.386 30.3792 134.945 29.5498 135.127 28.7451L134.294 28.3517C134.294 28.3517 133.513 29.828 132.224 30.0637C132.224 30.0637 133.824 29.1404 134.106 28.2772L133.235 27.9937C133.235 27.9937 132.445 29.4115 131.373 29.6065C131.373 29.6065 133.111 28.3517 133.03 27.9423C133.03 27.9423 132.215 27.7296 131.972 27.7792C131.972 27.7792 131.382 28.7877 130.749 28.8426C130.749 28.8426 131.822 27.882 131.741 27.7473C131.741 27.7473 130.606 27.7562 130.033 28.0663C130.546 27.7551 131.131 27.584 131.731 27.5701C131.47 27.3066 131.138 27.1255 130.777 27.049C130.777 27.049 131.385 26.7531 132.011 27.5701C132.011 27.5701 132.893 27.6002 133.011 27.6906C133.011 27.6906 132.512 26.8045 131.94 26.4394C131.94 26.4394 132.766 26.5351 133.243 27.758L134.125 28.0238C134.125 28.0238 133.527 26.808 133.041 26.45C133.041 26.45 133.869 26.6786 134.342 28.1089L135.162 28.4935C135.162 28.4935 134.726 27.407 134.28 26.8984C134.28 26.8984 135.001 27.2759 135.402 28.6193L135.918 28.9419C135.918 28.9419 135.587 28.1532 135.47 27.9352C135.354 27.7172 135.403 27.6693 135.403 27.6693C135.773 28.0598 136.027 28.5457 136.139 29.073C136.139 29.073 137.149 29.7943 137.2 29.7359Z" fill="white"/>
<path d="M115.525 41.9557C115.525 41.9557 115.702 35.2032 111.034 36.1549C111.034 36.1549 110.199 36.0255 109.846 36.7947C109.846 36.7947 110.199 36.7947 110.1 37.477C110.068 37.7204 110.064 37.9666 110.089 38.2108C110.121 38.5419 110.261 38.8533 110.486 39.0969C110.486 39.0969 111.327 40.965 114.432 41.5994C114.432 41.5994 115.122 42.1223 115.294 42.0939L114.765 40.9738C114.765 40.9738 113.963 41.3885 113.274 41.1067C113.274 41.1067 114.737 41.0199 114.697 40.8037C114.697 40.7594 114.393 40.2206 114.393 40.2206C114.393 40.2206 112.993 40.9384 111.944 40.4669C111.944 40.4669 113.707 40.5999 114.284 40.0168L113.792 39.2316C113.792 39.2316 112.35 40.0611 111.133 39.5719C111.133 39.5719 112.976 39.6464 113.674 39.0668L113.087 38.3579C113.087 38.3579 111.664 39.1413 110.655 38.7265C110.655 38.7265 112.792 38.5972 112.948 38.2055C112.948 38.2055 112.369 37.5905 112.136 37.4965C112.136 37.4965 111.103 38.0282 110.539 37.7411C110.539 37.7411 111.95 37.5036 111.958 37.3459C111.958 37.3459 110.994 36.7451 110.343 36.7008C110.943 36.7116 111.53 36.8802 112.045 37.1899C111.964 36.8277 111.781 36.4969 111.516 36.2382C111.516 36.2382 112.188 36.3144 112.279 37.337C112.279 37.337 113.015 37.8368 113.062 37.9751C113.062 37.9751 113.113 36.9524 112.819 36.3428C112.819 36.3428 113.468 36.8656 113.224 38.1558L113.829 38.8541C113.829 38.8541 113.967 37.5036 113.746 36.9418C113.746 36.9418 114.325 37.5781 113.968 39.042L114.457 39.8059C114.457 39.8059 114.665 38.6521 114.554 37.9733C114.554 37.9733 114.963 38.6822 114.589 40.0309L114.857 40.5804C114.857 40.5804 114.993 39.735 115.01 39.4886C115.028 39.2423 115.095 39.2263 115.095 39.2263C115.201 39.755 115.159 40.303 114.973 40.809C114.973 40.809 115.448 41.9787 115.525 41.9557Z" fill="white"/>
<path opacity="0.1" d="M123.241 127.757C125.863 127.757 127.989 127.396 127.989 126.95C127.989 126.505 125.863 126.144 123.241 126.144C120.619 126.144 118.493 126.505 118.493 126.95C118.493 127.396 120.619 127.757 123.241 127.757Z" fill="white"/>
<path opacity="0.1" d="M105.932 140C108.554 140 110.68 139.639 110.68 139.194C110.68 138.748 108.554 138.387 105.932 138.387C103.309 138.387 101.184 138.748 101.184 139.194C101.184 139.639 103.309 140 105.932 140Z" fill="white"/>
<path opacity="0.1" d="M16.4223 133.728C19.0446 133.728 21.1705 133.367 21.1705 132.922C21.1705 132.476 19.0446 132.115 16.4223 132.115C13.7999 132.115 11.674 132.476 11.674 132.922C11.674 133.367 13.7999 133.728 16.4223 133.728Z" fill="white"/>
<path opacity="0.1" d="M141.947 139.194C144.569 139.194 146.695 138.833 146.695 138.387C146.695 137.942 144.569 137.581 141.947 137.581C139.324 137.581 137.198 137.942 137.198 138.387C137.198 138.833 139.324 139.194 141.947 139.194Z" fill="white"/>
<path d="M146.89 129.361C150.806 129.361 153.98 128.821 153.98 128.156C153.98 127.49 150.806 126.951 146.89 126.951C142.975 126.951 139.801 127.49 139.801 128.156C139.801 128.821 142.975 129.361 146.89 129.361Z" fill="white"/>
<path d="M149.83 126.183C150.153 125.919 150.389 125.561 150.505 125.159C150.593 124.751 150.42 124.264 150.034 124.115C149.6 123.948 149.137 124.25 148.784 124.554C148.431 124.859 148.031 125.208 147.571 125.145C147.807 124.929 147.984 124.655 148.084 124.351C148.184 124.046 148.204 123.721 148.142 123.406C148.122 123.276 148.067 123.153 147.984 123.052C147.742 122.793 147.307 122.904 147.017 123.108C146.101 123.757 145.845 125.008 145.84 126.135C145.748 125.729 145.825 125.306 145.824 124.895C145.822 124.484 145.707 124.009 145.356 123.792C145.141 123.672 144.898 123.61 144.651 123.615C144.239 123.601 143.778 123.642 143.498 123.945C143.145 124.321 143.239 124.953 143.542 125.363C143.845 125.772 144.309 126.036 144.736 126.323C145.077 126.528 145.369 126.807 145.589 127.14C145.614 127.187 145.635 127.235 145.651 127.286H148.236C148.814 126.993 149.351 126.622 149.83 126.183Z" fill="white"/>
<path d="M13.2344 129.173C13.2344 129.173 15.9409 129.09 16.7608 128.505C17.5807 127.92 20.9272 127.223 21.1299 128.161C21.3327 129.098 25.1994 132.82 22.142 132.845C19.0847 132.87 15.0382 132.367 14.2236 131.867C13.409 131.367 13.2344 129.173 13.2344 129.173Z" fill="#A8A8A8"/>
<path opacity="0.2" d="M22.1931 132.519C19.1358 132.544 15.0893 132.041 14.2747 131.541C13.6541 131.162 13.4072 129.799 13.3243 129.169H13.2344C13.2344 129.169 13.4107 131.365 14.22 131.863C15.0293 132.361 19.0811 132.866 22.1385 132.842C23.0201 132.842 23.3251 132.519 23.3092 132.051C23.1858 132.337 22.849 132.514 22.1931 132.519Z" fill="black"/>
</g>
<defs>
<linearGradient id="paint0_linear_186_2030" x1="39.3172" y1="76.8156" x2="94.3513" y2="76.8156" gradientUnits="userSpaceOnUse">
<stop stop-color="#808080" stop-opacity="0.25"/>
<stop offset="0.54" stop-color="#808080" stop-opacity="0.12"/>
<stop offset="1" stop-color="#808080" stop-opacity="0.1"/>
</linearGradient>
<clipPath id="clip0_186_2030">
<rect width="178" height="140" fill="white"/>
</clipPath>
</defs>
</svg>
