<svg width="14" height="18" viewBox="0 0 14 18" fill="none" xmlns="http://www.w3.org/2000/svg">
<path d="M7 18C5.73693 16.9227 4.56619 15.7416 3.5 14.4691C1.9 12.5581 8.83662e-07 9.71205 8.83662e-07 7.00005C-0.00141728 4.1676 1.70425 1.61344 4.32107 0.529448C6.93789 -0.554545 9.95007 0.0452907 11.952 2.04905C13.2685 3.35966 14.0059 5.14244 14 7.00005C14 9.71205 12.1 12.5581 10.5 14.4691C9.43382 15.7416 8.26307 16.9227 7 18ZM7 4.00005C5.92821 4.00005 4.93782 4.57185 4.40193 5.50005C3.86603 6.42825 3.86603 7.57185 4.40193 8.50005C4.93782 9.42825 5.92821 10.0001 7 10.0001C8.65686 10.0001 10 8.6569 10 7.00005C10 5.3432 8.65686 4.00005 7 4.00005Z" fill="#395BB9"/>
</svg>
